<svg width="90" height="122" viewBox="0 0 90 122" fill="none" xmlns="http://www.w3.org/2000/svg">
<path d="M85.7038 25.2802C85.7038 25.2802 23.3765 18.9782 19.6246 121.302C19.6246 121.302 101.329 90.4124 85.7038 25.2802Z" fill="#355A32" stroke="black" stroke-linecap="round" stroke-linejoin="round"/>
<path d="M85.7038 25.2802C85.7038 25.2802 41.4741 75.2289 19.6246 121.302" stroke="black" stroke-linecap="round" stroke-linejoin="round"/>
<path d="M47.3562 40.443C47.3562 40.443 65.7349 37.1254 74.5704 38.1222C74.5704 38.1222 82.6915 46.2858 86.2206 55.0415" stroke="black" stroke-linecap="round" stroke-linejoin="round"/>
<path d="M32.8871 60.2095C32.8871 60.2095 49.1614 52.8545 63.5055 52.5382C63.5055 52.5382 72.5316 65.4556 76.8754 76.9809" stroke="black" stroke-linecap="round" stroke-linejoin="round"/>
<path d="M25.7073 78.3968C25.7073 78.3968 45.3196 71.2134 49.0238 72.2055C50.2138 72.5284 60.3231 88.5039 62.7193 93.4115" stroke="black" stroke-linecap="round" stroke-linejoin="round"/>
<path d="M21.2613 99.5438C21.2613 99.5438 31.783 93.7244 34.9477 93.3233C34.9477 93.3233 38.8551 100.61 41.7847 109.885" stroke="black" stroke-linecap="round" stroke-linejoin="round"/>
<path d="M75.6807 15.2703C75.6807 15.2703 49.9894 -16.7197 0.500148 28.5365C0.500148 28.5365 52.4545 52.4857 75.6807 15.2703Z" fill="#355A32" stroke="black" stroke-linecap="round" stroke-linejoin="round"/>
<path d="M75.6807 15.2703C75.6807 15.2703 32.0452 17.5699 0.500141 28.5365" stroke="black" stroke-linecap="round" stroke-linejoin="round"/>
<path d="M50.9858 4.33511C50.9858 4.33511 60.9776 11.3903 64.5713 15.9727C64.5713 15.9727 64.4913 23.514 62.0253 29.1838" stroke="black" stroke-linecap="round" stroke-linejoin="round"/>
<path d="M35.1115 6.66153C35.1115 6.66153 46.0212 10.8796 52.7586 17.4302C52.7586 17.4302 50.8752 27.5779 47.4907 34.9003" stroke="black" stroke-linecap="round" stroke-linejoin="round"/>
<path d="M23.3231 11.6651C23.3231 11.6651 35.6863 17.5203 36.9249 19.7052C37.3209 20.409 34.5076 32.4673 33.3174 35.8404" stroke="black" stroke-linecap="round" stroke-linejoin="round"/>
<path d="M11.4091 19.3047C11.4091 19.3047 18.9593 21.5429 20.6004 22.8359C20.6004 22.8359 18.994 28.0072 16.0102 33.6358" stroke="black" stroke-linecap="round" stroke-linejoin="round"/>
<path d="M77.1289 10.0241C81.9046 -38.5953 118.269 -19.1768 80.5104 11.8265C118.269 -19.1768 130.247 20.2686 81.6196 15.493C130.239 20.2686 110.821 56.633 79.8172 18.8667C110.821 56.6253 71.375 68.603 76.1507 19.9759C71.375 68.5953 35.0106 49.1768 72.7769 18.1735C35.0183 49.1768 23.0406 9.73136 71.6677 14.507C23.0483 9.73136 42.4668 -26.6331 73.4702 11.1332C42.4668 -26.6254 81.9123 -38.603 77.1367 10.0241H77.1289Z" fill="#BEE0FC" fill-opacity="0.98" stroke="black" stroke-width="0.75" stroke-miterlimit="10"/>
</svg>
