<svg width="44" height="44" viewBox="0 0 44 44" fill="none" xmlns="http://www.w3.org/2000/svg">
<path d="M36.1429 0H7.85714C3.52 0 0 3.52 0 7.85714V36.1429C0 40.48 3.52 44 7.85714 44H36.1429C40.48 44 44 40.48 44 36.1429V7.85714C44 3.52 40.48 0 36.1429 0ZM9.88429 20.8843L20.8843 9.88429C21.4971 9.27143 22.4871 9.27143 23.1 9.88429L34.1 20.8843C35.5771 22.3614 33.33 24.5614 31.8843 23.1L22 13.2157L12.1157 23.1C10.6386 24.5771 8.42286 22.3457 9.9 20.8843H9.88429ZM31.8843 34.1L22 24.2157L12.1157 34.1C10.6386 35.5771 8.42286 33.3457 9.9 31.8843L20.9 20.8843C21.5129 20.2714 22.5029 20.2714 23.1157 20.8843L34.1157 31.8843C35.6086 33.3771 33.3457 35.5614 31.9 34.1H31.8843Z" fill="white"/>
</svg>
