{
    "accessors": [
        {
            "bufferView": 1,
            "byteOffset": 0,
            "componentType": 5126,
            "count": 89839,
            "max": [
                1.0,
                1.0,
                1.0
            ],
            "min": [
                -1.0,
                -1.0,
                -1.0
            ],
            "name": "accessor_buffer_Ultimaker 2 Al profile extended museum2low2_NORMAL_0",
            "type": "VEC3"
        },
        {
            "bufferView": 2,
            "byteOffset": 0,
            "componentType": 5125,
            "count": 95289,
            "max": [
                89838
            ],
            "min": [
                0
            ],
            "name": "accessor_buffer_Ultimaker 2 Al profile extended museum2low2_0",
            "type": "SCALAR"
        },
        {
            "bufferView": 0,
            "byteOffset": 0,
            "componentType": 5126,
            "count": 89839,
            "max": [
                -81.42060852050781,
                416.6773376464844,
                680.5342407226562
            ],
            "min": [
                -437.4205322265625,
                17.663433074951172,
                154.62254333496094
            ],
            "name": "accessor_buffer_Ultimaker 2 Al profile extended museum2low2_POSITION_0",
            "type": "VEC3"
        }
    ],
    "asset": {
        "copyright": "",
        "generator": "blendergltf v1.2.0",
        "version": "2.0"
    },
    "bufferViews": [
        {
            "buffer": 0,
            "byteLength": 1078068,
            "byteOffset": 0,
            "byteStride": 12,
            "name": "bufferView_buffer_Ultimaker 2 Al profile extended museum2low2_POSITION_0",
            "target": 34962
        },
        {
            "buffer": 0,
            "byteLength": 1078068,
            "byteOffset": 1078068,
            "byteStride": 12,
            "name": "bufferView_buffer_Ultimaker 2 Al profile extended museum2low2_NORMAL_0",
            "target": 34962
        },
        {
            "buffer": 0,
            "byteLength": 381160,
            "byteOffset": 2156136,
            "name": "bufferView_buffer_Ultimaker 2 Al profile extended museum2low2_0",
            "target": 34963
        }
    ],
    "buffers": [
        {
            "byteLength": 2537296,
            "name": "buffer_201806013dprinterlow2_white",
            "uri": "buffer_201806013dprinterlow2_white.bin"
        }
    ],
    "cameras": [
        {
            "name": "Camera",
            "perspective": {
                "aspectRatio": 1.703595982340029,
                "yfov": 0.5033799409866333,
                "zfar": 100.0,
                "znear": 0.10000000149011612
            },
            "type": "perspective"
        }
    ],
    "materials": [
        {
            "alphaMode": "OPAQUE",
            "doubleSided": false,
            "emissiveFactor": [
                0.0,
                0.0,
                0.0
            ],
            "name": "Material.001",
            "pbrMetallicRoughness": {
                "baseColorFactor": [
                    0.64000004529953,
                    0.64000004529953,
                    0.64000004529953,
                    1.0
                ],
                "metallicFactor": 0.0,
                "roughnessFactor": 1.0
            }
        }
    ],
    "meshes": [
        {
            "name": "Ultimaker 2 Al profile extended museum2low2",
            "primitives": [
                {
                    "attributes": {
                        "NORMAL": 0,
                        "POSITION": 2
                    },
                    "indices": 1,
                    "material": 0,
                    "mode": 4
                }
            ]
        }
    ],
    "nodes": [
        {
            "camera": 0,
            "name": "Camera",
            "rotation": [
                -0.09062843769788742,
                -0.8937962651252747,
                -0.2099730223417282,
                0.38578000664711
            ],
            "scale": [
                1.0,
                1.0,
                1.0
            ],
            "translation": [
                -7.481131553649902,
                5.34366512298584,
                -6.5076398849487305
            ]
        },
        {
            "name": "Lamp",
            "rotation": [
                -0.34203386306762695,
                -0.5232755541801453,
                -0.2841663062572479,
                0.7269423007965088
            ],
            "scale": [
                1.0,
                1.0,
                0.9999999403953552
            ],
            "translation": [
                -4.076245307922363,
                5.903861999511719,
                1.0054539442062378
            ]
        },
        {
            "mesh": 0,
            "name": "Ultimaker 2 Al profile extended museum2low2",
            "rotation": [
                -0.707083523273468,
                -3.601398129088611e-24,
                1.5700408157425639e-16,
                0.7071300148963928
            ],
            "scale": [
                1.0,
                1.0,
                1.0
            ],
            "translation": [
                258.0989074707031,
                -409.9433288574219,
                -291.1752014160156
            ]
        }
    ],
    "scene": 0,
    "scenes": [
        {
            "extras": {
                "active_camera": 0,
                "background_color": [
                    0.05087608844041824,
                    0.05087608844041824,
                    0.05087608844041824
                ],
                "frames_per_second": 24
            },
            "name": "Scene",
            "nodes": [
                2,
                1,
                0
            ]
        }
    ]
}
