{
    "accessors": [
        {
            "bufferView": 0,
            "byteOffset": 0,
            "componentType": 5126,
            "count": 30276,
            "max": [
                -0.0001043081283569336,
                35.900001525878906,
                107.99999237060547
            ],
            "min": [
                -200.00010681152344,
                0.0,
                0.0
            ],
            "name": "accessor_buffer_1157-B2P-A-1 text_POSITION_0",
            "type": "VEC3"
        },
        {
            "bufferView": 2,
            "byteOffset": 0,
            "componentType": 5123,
            "count": 40188,
            "max": [
                30275
            ],
            "min": [
                0
            ],
            "name": "accessor_buffer_1157-B2P-A-1 text_0",
            "type": "SCALAR"
        },
        {
            "bufferView": 1,
            "byteOffset": 0,
            "componentType": 5126,
            "count": 30276,
            "max": [
                1.0,
                1.0,
                1.0
            ],
            "min": [
                -1.0,
                -1.0,
                -1.0
            ],
            "name": "accessor_buffer_1157-B2P-A-1 text_NORMAL_0",
            "type": "VEC3"
        }
    ],
    "asset": {
        "copyright": "",
        "generator": "blendergltf v1.2.0",
        "version": "2.0"
    },
    "bufferViews": [
        {
            "buffer": 0,
            "byteLength": 363312,
            "byteOffset": 0,
            "byteStride": 12,
            "name": "bufferView_buffer_1157-B2P-A-1 text_POSITION_0",
            "target": 34962
        },
        {
            "buffer": 0,
            "byteLength": 363312,
            "byteOffset": 363312,
            "byteStride": 12,
            "name": "bufferView_buffer_1157-B2P-A-1 text_NORMAL_0",
            "target": 34962
        },
        {
            "buffer": 0,
            "byteLength": 80380,
            "byteOffset": 726624,
            "name": "bufferView_buffer_1157-B2P-A-1 text_0",
            "target": 34963
        }
    ],
    "buffers": [
        {
            "byteLength": 807004,
            "name": "buffer_20180601text_white_higher_wall",
            "uri": "buffer_20180601text_white_higher_wall.bin"
        }
    ],
    "cameras": [
        {
            "name": "Camera",
            "perspective": {
                "aspectRatio": 1.703595982340029,
                "yfov": 0.5033799409866333,
                "zfar": 100.0,
                "znear": 0.10000000149011612
            },
            "type": "perspective"
        }
    ],
    "materials": [
        {
            "alphaMode": "OPAQUE",
            "doubleSided": false,
            "emissiveFactor": [
                0.0,
                0.0,
                0.0
            ],
            "name": "Material.001",
            "pbrMetallicRoughness": {
                "baseColorFactor": [
                    0.64000004529953,
                    0.64000004529953,
                    0.64000004529953,
                    1.0
                ],
                "metallicFactor": 0.0,
                "roughnessFactor": 1.0
            }
        }
    ],
    "meshes": [
        {
            "name": "1157-B2P-A-1 text",
            "primitives": [
                {
                    "attributes": {
                        "NORMAL": 2,
                        "POSITION": 0
                    },
                    "indices": 1,
                    "material": 0,
                    "mode": 4
                }
            ]
        }
    ],
    "nodes": [
        {
            "mesh": 0,
            "name": "1157-B2P-A-1 text",
            "rotation": [
                -0.7071068286895752,
                -1.2790028259428063e-23,
                1.5700926965105832e-16,
                0.7071067094802856
            ],
            "scale": [
                1.0,
                1.0,
                1.0
            ],
            "translation": [
                98.36178588867188,
                0.0,
                0.0
            ]
        },
        {
            "camera": 0,
            "name": "Camera",
            "rotation": [
                -0.09062843769788742,
                -0.8937962651252747,
                -0.2099730223417282,
                0.38578000664711
            ],
            "scale": [
                1.0,
                1.0,
                1.0
            ],
            "translation": [
                -7.481131553649902,
                5.34366512298584,
                -6.5076398849487305
            ]
        },
        {
            "name": "Lamp",
            "rotation": [
                -0.34203386306762695,
                -0.5232755541801453,
                -0.2841663062572479,
                0.7269423007965088
            ],
            "scale": [
                1.0,
                1.0,
                0.9999999403953552
            ],
            "translation": [
                -4.076245307922363,
                5.903861999511719,
                1.0054539442062378
            ]
        }
    ],
    "scene": 0,
    "scenes": [
        {
            "extras": {
                "active_camera": 0,
                "background_color": [
                    0.05087608844041824,
                    0.05087608844041824,
                    0.05087608844041824
                ],
                "frames_per_second": 24
            },
            "name": "Scene",
            "nodes": [
                0,
                2,
                1
            ]
        }
    ]
}
