{
    "accessors": [
        {
            "bufferView": 1,
            "byteOffset": 0,
            "componentType": 5126,
            "count": 92398,
            "max": [
                1.0,
                1.0,
                1.0
            ],
            "min": [
                -1.0,
                -1.0,
                -1.0
            ],
            "name": "accessor_buffer_201806013Dprinterlow12_NORMAL_0",
            "type": "VEC3"
        },
        {
            "bufferView": 0,
            "byteOffset": 0,
            "componentType": 5126,
            "count": 92398,
            "max": [
                119.0276870727539,
                337.22515869140625,
                -17.71125602722168
            ],
            "min": [
                -236.97393798828125,
                -188.70668029785156,
                -416.7528991699219
            ],
            "name": "accessor_buffer_201806013Dprinterlow12_POSITION_0",
            "type": "VEC3"
        },
        {
            "bufferView": 2,
            "byteOffset": 0,
            "componentType": 5125,
            "count": 94794,
            "max": [
                92397
            ],
            "min": [
                0
            ],
            "name": "accessor_buffer_201806013Dprinterlow12_0",
            "type": "SCALAR"
        }
    ],
    "asset": {
        "copyright": "",
        "generator": "blendergltf v1.2.0",
        "version": "2.0"
    },
    "bufferViews": [
        {
            "buffer": 0,
            "byteLength": 1108776,
            "byteOffset": 0,
            "byteStride": 12,
            "name": "bufferView_buffer_201806013Dprinterlow12_POSITION_0",
            "target": 34962
        },
        {
            "buffer": 0,
            "byteLength": 1108776,
            "byteOffset": 1108776,
            "byteStride": 12,
            "name": "bufferView_buffer_201806013Dprinterlow12_NORMAL_0",
            "target": 34962
        },
        {
            "buffer": 0,
            "byteLength": 379180,
            "byteOffset": 2217552,
            "name": "bufferView_buffer_201806013Dprinterlow12_0",
            "target": 34963
        }
    ],
    "buffers": [
        {
            "byteLength": 2596732,
            "name": "buffer_201806053dprinterlow2_metal",
            "uri": "buffer_201806053dprinterlow2_metal.bin"
        }
    ],
    "cameras": [
        {
            "name": "Camera",
            "perspective": {
                "aspectRatio": 1.703595982340029,
                "yfov": 0.5033799409866333,
                "zfar": 100.0,
                "znear": 0.10000000149011612
            },
            "type": "perspective"
        }
    ],
    "meshes": [
        {
            "name": "201806013Dprinterlow12",
            "primitives": [
                {
                    "attributes": {
                        "NORMAL": 0,
                        "POSITION": 1
                    },
                    "indices": 2,
                    "mode": 4
                }
            ]
        }
    ],
    "nodes": [
        {
            "mesh": 0,
            "name": "201806013Dprinterlow12",
            "rotation": [
                0.0,
                0.0,
                0.0,
                1.0
            ],
            "scale": [
                1.0,
                1.0,
                1.0
            ],
            "translation": [
                0.0,
                0.0,
                0.0
            ]
        },
        {
            "camera": 0,
            "name": "Camera",
            "rotation": [
                -0.09062843769788742,
                -0.8937962651252747,
                -0.2099730223417282,
                0.38578000664711
            ],
            "scale": [
                1.0,
                1.0,
                1.0
            ],
            "translation": [
                -7.481131553649902,
                5.34366512298584,
                -6.5076398849487305
            ]
        },
        {
            "name": "Lamp",
            "rotation": [
                -0.34203386306762695,
                -0.5232755541801453,
                -0.2841663062572479,
                0.7269423007965088
            ],
            "scale": [
                1.0,
                1.0,
                0.9999999403953552
            ],
            "translation": [
                -4.076245307922363,
                5.903861999511719,
                1.0054539442062378
            ]
        }
    ],
    "scene": 0,
    "scenes": [
        {
            "extras": {
                "active_camera": 0,
                "background_color": [
                    0.05087608844041824,
                    0.05087608844041824,
                    0.05087608844041824
                ],
                "frames_per_second": 24
            },
            "name": "Scene",
            "nodes": [
                0,
                2,
                1
            ]
        }
    ]
}
