{
    "accessors": [
        {
            "bufferView": 2,
            "byteOffset": 0,
            "componentType": 5125,
            "count": 300549,
            "max": [
                278114
            ],
            "min": [
                0
            ],
            "name": "accessor_buffer_Ultimaker 2 Al profile extended withoutwall low.001_0",
            "type": "SCALAR"
        },
        {
            "bufferView": 0,
            "byteOffset": 0,
            "componentType": 5126,
            "count": 278115,
            "max": [
                -81.4205551147461,
                416.67578125,
                680.522705078125
            ],
            "min": [
                -437.42059326171875,
                17.676097869873047,
                154.6226806640625
            ],
            "name": "accessor_buffer_Ultimaker 2 Al profile extended withoutwall low.001_POSITION_0",
            "type": "VEC3"
        },
        {
            "bufferView": 1,
            "byteOffset": 0,
            "componentType": 5126,
            "count": 278115,
            "max": [
                1.0,
                1.0,
                1.0
            ],
            "min": [
                -1.0,
                -1.0,
                -1.0
            ],
            "name": "accessor_buffer_Ultimaker 2 Al profile extended withoutwall low.001_NORMAL_0",
            "type": "VEC3"
        }
    ],
    "asset": {
        "copyright": "",
        "generator": "blendergltf v1.2.0",
        "version": "2.0"
    },
    "bufferViews": [
        {
            "buffer": 0,
            "byteLength": 3337380,
            "byteOffset": 0,
            "byteStride": 12,
            "name": "bufferView_buffer_Ultimaker 2 Al profile extended withoutwall low.001_POSITION_0",
            "target": 34962
        },
        {
            "buffer": 0,
            "byteLength": 3337380,
            "byteOffset": 3337380,
            "byteStride": 12,
            "name": "bufferView_buffer_Ultimaker 2 Al profile extended withoutwall low.001_NORMAL_0",
            "target": 34962
        },
        {
            "buffer": 0,
            "byteLength": 1202200,
            "byteOffset": 6674760,
            "name": "bufferView_buffer_Ultimaker 2 Al profile extended withoutwall low.001_0",
            "target": 34963
        }
    ],
    "buffers": [
        {
            "byteLength": 7876960,
            "name": "buffer_20180531_Postdigital_readymade_3dprinterwithoutwall_lower",
            "uri": "buffer_20180531_Postdigital_readymade_3dprinterwithoutwall_lower.bin"
        }
    ],
    "cameras": [
        {
            "name": "Camera",
            "perspective": {
                "aspectRatio": 1.703595982340029,
                "yfov": 0.5033799409866333,
                "zfar": 100.0,
                "znear": 0.10000000149011612
            },
            "type": "perspective"
        }
    ],
    "materials": [
        {
            "alphaMode": "OPAQUE",
            "doubleSided": false,
            "emissiveFactor": [
                0.0,
                0.0,
                0.0
            ],
            "name": "Material.001",
            "pbrMetallicRoughness": {
                "baseColorFactor": [
                    0.09081761538982391,
                    0.64000004529953,
                    0.06314375251531601,
                    1.0
                ],
                "metallicFactor": 0.0,
                "roughnessFactor": 1.0
            }
        }
    ],
    "meshes": [
        {
            "name": "Ultimaker 2 Al profile extended withoutwall low.001",
            "primitives": [
                {
                    "attributes": {
                        "NORMAL": 2,
                        "POSITION": 1
                    },
                    "indices": 0,
                    "material": 0,
                    "mode": 4
                }
            ]
        }
    ],
    "nodes": [
        {
            "camera": 0,
            "name": "Camera",
            "rotation": [
                -0.09062843769788742,
                -0.8937962651252747,
                -0.2099730223417282,
                0.38578000664711
            ],
            "scale": [
                1.0,
                1.0,
                1.0
            ],
            "translation": [
                -7.481131553649902,
                5.34366512298584,
                -6.5076398849487305
            ]
        },
        {
            "name": "Lamp",
            "rotation": [
                -0.34203386306762695,
                -0.5232755541801453,
                -0.2841663062572479,
                0.7269423007965088
            ],
            "scale": [
                1.0,
                1.0,
                0.9999999403953552
            ],
            "translation": [
                -4.076245307922363,
                5.903861999511719,
                1.0054539442062378
            ]
        },
        {
            "mesh": 0,
            "name": "Ultimaker 2 Al profile extended withoutwall low.001",
            "rotation": [
                -0.7070878744125366,
                5.814572247804674e-24,
                1.5700504772121185e-16,
                0.7071256637573242
            ],
            "scale": [
                1.0,
                1.0,
                1.0
            ],
            "translation": [
                265.3026428222656,
                -292.93359375,
                0.0
            ]
        }
    ],
    "scene": 0,
    "scenes": [
        {
            "extras": {
                "active_camera": 0,
                "background_color": [
                    0.05087608844041824,
                    0.05087608844041824,
                    0.05087608844041824
                ],
                "frames_per_second": 24
            },
            "name": "Scene",
            "nodes": [
                2,
                1,
                0
            ]
        }
    ]
}
