{
    "accessors": [
        {
            "bufferView": 1,
            "byteOffset": 0,
            "componentType": 5126,
            "count": 184908,
            "max": [
                1.0,
                1.0,
                1.0
            ],
            "min": [
                -1.0,
                -1.0,
                -1.0
            ],
            "name": "accessor_buffer_3dBenchy remade low_NORMAL_0",
            "type": "VEC3"
        },
        {
            "bufferView": 0,
            "byteOffset": 0,
            "componentType": 5126,
            "count": 184908,
            "max": [
                44.710269927978516,
                253.0211944580078,
                23.756149291992188
            ],
            "min": [
                -47.264583587646484,
                -8.564848030800931e-06,
                -23.7559814453125
            ],
            "name": "accessor_buffer_3dBenchy remade low_POSITION_0",
            "type": "VEC3"
        },
        {
            "bufferView": 2,
            "byteOffset": 0,
            "componentType": 5125,
            "count": 188652,
            "max": [
                184907
            ],
            "min": [
                0
            ],
            "name": "accessor_buffer_3dBenchy remade low_0",
            "type": "SCALAR"
        }
    ],
    "asset": {
        "copyright": "",
        "generator": "blendergltf v1.2.0",
        "version": "2.0"
    },
    "bufferViews": [
        {
            "buffer": 0,
            "byteLength": 2218896,
            "byteOffset": 0,
            "byteStride": 12,
            "name": "bufferView_buffer_3dBenchy remade low_POSITION_0",
            "target": 34962
        },
        {
            "buffer": 0,
            "byteLength": 2218896,
            "byteOffset": 2218896,
            "byteStride": 12,
            "name": "bufferView_buffer_3dBenchy remade low_NORMAL_0",
            "target": 34962
        },
        {
            "buffer": 0,
            "byteLength": 754612,
            "byteOffset": 4437792,
            "name": "bufferView_buffer_3dBenchy remade low_0",
            "target": 34963
        }
    ],
    "buffers": [
        {
            "byteLength": 5192404,
            "name": "buffer_13dBenchy_remade_low",
            "uri": "buffer_13dBenchy_remade_low.bin"
        }
    ],
    "cameras": [
        {
            "name": "Camera",
            "perspective": {
                "aspectRatio": 1.703595982340029,
                "yfov": 0.5033799409866333,
                "zfar": 100.0,
                "znear": 0.10000000149011612
            },
            "type": "perspective"
        }
    ],
    "materials": [
        {
            "alphaMode": "OPAQUE",
            "doubleSided": false,
            "emissiveFactor": [
                0.0,
                0.0,
                0.0
            ],
            "name": "Material.001",
            "pbrMetallicRoughness": {
                "baseColorFactor": [
                    0.64000004529953,
                    0.5838140845298767,
                    0.013410939835011959,
                    1.0
                ],
                "metallicFactor": 1.0,
                "roughnessFactor": 1.0
            }
        }
    ],
    "meshes": [
        {
            "name": "3dBenchy remade low",
            "primitives": [
                {
                    "attributes": {
                        "NORMAL": 0,
                        "POSITION": 1
                    },
                    "indices": 2,
                    "material": 0,
                    "mode": 4
                }
            ]
        }
    ],
    "nodes": [
        {
            "mesh": 0,
            "name": "3dBenchy remade low",
            "rotation": [
                0.0,
                0.0,
                0.0,
                1.0
            ],
            "scale": [
                1.0,
                1.0,
                1.0
            ],
            "translation": [
                0.0,
                0.0,
                0.0
            ]
        },
        {
            "camera": 0,
            "name": "Camera",
            "rotation": [
                -0.09062843769788742,
                -0.8937962651252747,
                -0.2099730223417282,
                0.38578000664711
            ],
            "scale": [
                1.0,
                1.0,
                1.0
            ],
            "translation": [
                -7.481131553649902,
                5.34366512298584,
                -6.5076398849487305
            ]
        },
        {
            "name": "Lamp",
            "rotation": [
                -0.34203386306762695,
                -0.5232755541801453,
                -0.2841663062572479,
                0.7269423007965088
            ],
            "scale": [
                1.0,
                1.0,
                0.9999999403953552
            ],
            "translation": [
                -4.076245307922363,
                5.903861999511719,
                1.0054539442062378
            ]
        }
    ],
    "scene": 0,
    "scenes": [
        {
            "extras": {
                "active_camera": 0,
                "background_color": [
                    0.05087608844041824,
                    0.05087608844041824,
                    0.05087608844041824
                ],
                "frames_per_second": 24
            },
            "name": "Scene",
            "nodes": [
                0,
                2,
                1
            ]
        }
    ]
}
