{
    "accessors": [
        {
            "bufferView": 2,
            "byteOffset": 0,
            "componentType": 5125,
            "count": 176046,
            "max": [
                176045
            ],
            "min": [
                0
            ],
            "name": "accessor_buffer_6Trex remade2 low_0",
            "type": "SCALAR"
        },
        {
            "bufferView": 1,
            "byteOffset": 0,
            "componentType": 5126,
            "count": 176046,
            "max": [
                0.9999815821647644,
                0.999976396560669,
                1.0
            ],
            "min": [
                -0.9999317526817322,
                -1.0,
                -1.0
            ],
            "name": "accessor_buffer_6Trex remade2 low_NORMAL_0",
            "type": "VEC3"
        },
        {
            "bufferView": 0,
            "byteOffset": 0,
            "componentType": 5126,
            "count": 176046,
            "max": [
                184.130126953125,
                79.85179138183594,
                129.72293090820312
            ],
            "min": [
                -189.45205688476562,
                -46.75762939453125,
                -130.4666290283203
            ],
            "name": "accessor_buffer_6Trex remade2 low_POSITION_0",
            "type": "VEC3"
        }
    ],
    "asset": {
        "copyright": "",
        "generator": "blendergltf v1.2.0",
        "version": "2.0"
    },
    "bufferViews": [
        {
            "buffer": 0,
            "byteLength": 2112552,
            "byteOffset": 0,
            "byteStride": 12,
            "name": "bufferView_buffer_6Trex remade2 low_POSITION_0",
            "target": 34962
        },
        {
            "buffer": 0,
            "byteLength": 2112552,
            "byteOffset": 2112552,
            "byteStride": 12,
            "name": "bufferView_buffer_6Trex remade2 low_NORMAL_0",
            "target": 34962
        },
        {
            "buffer": 0,
            "byteLength": 704188,
            "byteOffset": 4225104,
            "name": "bufferView_buffer_6Trex remade2 low_0",
            "target": 34963
        }
    ],
    "buffers": [
        {
            "byteLength": 4929292,
            "name": "buffer_6Trex_remade2low",
            "uri": "buffer_6Trex_remade2low.bin"
        }
    ],
    "cameras": [
        {
            "name": "Camera",
            "perspective": {
                "aspectRatio": 1.703595982340029,
                "yfov": 0.5033799409866333,
                "zfar": 100.0,
                "znear": 0.10000000149011612
            },
            "type": "perspective"
        }
    ],
    "materials": [
        {
            "alphaMode": "OPAQUE",
            "doubleSided": false,
            "emissiveFactor": [
                0.0,
                0.0,
                0.0
            ],
            "name": "Material.001",
            "pbrMetallicRoughness": {
                "baseColorFactor": [
                    0.800000011920929,
                    0.057817477732896805,
                    0.057817477732896805,
                    1.0
                ],
                "metallicFactor": 0.0,
                "roughnessFactor": 1.0
            }
        }
    ],
    "meshes": [
        {
            "name": "6Trex remade2 low",
            "primitives": [
                {
                    "attributes": {
                        "NORMAL": 1,
                        "POSITION": 2
                    },
                    "indices": 0,
                    "material": 0,
                    "mode": 4
                }
            ]
        }
    ],
    "nodes": [
        {
            "mesh": 0,
            "name": "6Trex remade2 low",
            "rotation": [
                0.0,
                0.0,
                0.0,
                1.0
            ],
            "scale": [
                1.0,
                1.0,
                1.0
            ],
            "translation": [
                19.054508209228516,
                47.34046936035156,
                67.61381530761719
            ]
        },
        {
            "camera": 0,
            "name": "Camera",
            "rotation": [
                -0.09062843769788742,
                -0.8937962651252747,
                -0.2099730223417282,
                0.38578000664711
            ],
            "scale": [
                1.0,
                1.0,
                1.0
            ],
            "translation": [
                -7.481131553649902,
                5.34366512298584,
                -6.5076398849487305
            ]
        },
        {
            "name": "Lamp",
            "rotation": [
                -0.34203386306762695,
                -0.5232755541801453,
                -0.2841663062572479,
                0.7269423007965088
            ],
            "scale": [
                1.0,
                1.0,
                0.9999999403953552
            ],
            "translation": [
                -4.076245307922363,
                5.903861999511719,
                1.0054539442062378
            ]
        }
    ],
    "scene": 0,
    "scenes": [
        {
            "extras": {
                "active_camera": 0,
                "background_color": [
                    0.05087608844041824,
                    0.05087608844041824,
                    0.05087608844041824
                ],
                "frames_per_second": 24
            },
            "name": "Scene",
            "nodes": [
                0,
                2,
                1
            ]
        }
    ]
}
